<svg width="27" height="27" viewBox="0 0 27 27" fill="none" xmlns="http://www.w3.org/2000/svg">
<path d="M3.20302 18.6972C-1.06851 14.4256 -1.06842 7.4751 3.20302 3.20347C7.47465 -1.06815 14.425 -1.06815 18.6966 3.20347C22.3205 6.82736 22.8693 12.217 20.3446 16.4257C20.3446 16.4257 20.1632 16.73 20.4082 16.9748C21.8055 18.372 25.9977 22.5643 25.9977 22.5643C27.1102 23.6767 27.3751 25.2324 26.3885 26.2191L26.2186 26.3888C25.232 27.3756 23.6763 27.1109 22.5638 25.9983C22.5638 25.9983 18.3805 21.8149 16.9861 20.4205C16.7294 20.1638 16.4252 20.3452 16.4252 20.3452C12.2166 22.8698 6.82691 22.3211 3.20302 18.6972ZM16.674 16.6745C19.8303 13.5182 19.8302 8.38263 16.6739 5.22634C13.5176 2.07014 8.38201 2.07005 5.22581 5.22634C2.06952 8.38255 2.06952 13.5182 5.22581 16.6745C8.3821 19.8306 13.5176 19.8306 16.674 16.6745Z" fill="black"/>
</svg>
